<svg xmlns="http://www.w3.org/2000/svg" viewBox="0 0 64 64" role="img" aria-labelledby="title">
  <title id="title">Birthday Gift favicon</title>
  <defs>
    <linearGradient id="bg" x1="10%" y1="4%" x2="90%" y2="96%">
      <stop offset="0%" stop-color="#ff6b95"/>
      <stop offset="48%" stop-color="#ffc857"/>
      <stop offset="100%" stop-color="#7357d6"/>
    </linearGradient>
    <linearGradient id="ribbon" x1="0%" y1="0%" x2="100%" y2="100%">
      <stop offset="0%" stop-color="#fff7c2"/>
      <stop offset="100%" stop-color="#ffb703"/>
    </linearGradient>
  </defs>
  <rect width="64" height="64" rx="16" fill="#17113f"/>
  <circle cx="32" cy="32" r="30" fill="url(#bg)"/>
  <path d="M32 8l3.2 7.7 8.3 3.2-8.3 3.2L32 30l-3.2-7.9-8.3-3.2 8.3-3.2L32 8Z" fill="#fff8d6"/>
  <rect x="15" y="31" width="34" height="23" rx="5" fill="#fff4f7"/>
  <rect x="13" y="25" width="38" height="11" rx="4" fill="#ff3f82"/>
  <rect x="28" y="25" width="8" height="29" fill="url(#ribbon)"/>
  <path d="M29.5 25c-9-1.3-14-4.7-14-10 0-3.7 2.7-6.2 6.5-6.2 5.7 0 9.4 5.6 10 16.2" fill="none" stroke="#fff7c2" stroke-width="5" stroke-linecap="round"/>
  <path d="M34.5 25c9-1.3 14-4.7 14-10 0-3.7-2.7-6.2-6.5-6.2-5.7 0-9.4 5.6-10 16.2" fill="none" stroke="#fff7c2" stroke-width="5" stroke-linecap="round"/>
</svg>
